# xmcd CD database file
#
# Track frame offsets:
#	150
#	3877
#	29200
#	56482
#	75935
#	108197
#	126910
#	152025
#	182057
#	209940
#	251565
#	270712
#	294592
#	309345
#
# Disc length: 4177 seconds
#
# Revision: 0
# Processed by: cddbd v1.5.2PL0 Copyright (c) Steve Scherf et al.
# Submitted via: CDex 1.70beta2
#
DISCID=c2104f0e
DTITLE=Omar Sosa - Spirit Of The Roots
DYEAR=1999
DGENRE=Jazz
TTITLE0=Eleggua
TTITLE1=Tela Pa' Oya
TTITLE2=It's My Head
TTITLE3=Fabriciano con Chango
TTITLE4=Tienes un Solo
TTITLE5=To Miles and Joseito, Ibae
TTITLE6=Agua Larga Pa' Yemaya
TTITLE7=Remember Monk
TTITLE8=Chancletera
TTITLE9=Antes de Ir Va Esto
TTITLE10=Mi Negra, Tu Bombon
TTITLE11=Para Ella
TTITLE12=Solas
TTITLE13=Eleggua
EXTD=YEAR: 1999
EXTT0=
EXTT1=
EXTT2=
EXTT3=
EXTT4=
EXTT5=
EXTT6=
EXTT7=
EXTT8=
EXTT9=
EXTT10=
EXTT11=
EXTT12=
EXTT13=
PLAYORDER=
